<svg xmlns="http://www.w3.org/2000/svg" width="30.5" height="26.688" viewBox="40 399.656 30.5 26.688"><path d="M67.64 426.344H42.86a2.86 2.86 0 0 1-2.86-2.86v-20.969a2.86 2.86 0 0 1 2.86-2.859h24.78a2.86 2.86 0 0 1 2.86 2.86v20.969a2.86 2.86 0 0 1-2.86 2.859Zm-20.015-21.446a2.383 2.383 0 1 0 0 4.766 2.383 2.383 0 0 0 0-4.766Zm0 5.72a2.383 2.383 0 1 0 0 4.765 2.383 2.383 0 0 0 0-4.766Zm0 5.718a2.383 2.383 0 1 0 0 4.766 2.383 2.383 0 0 0 0-4.766Zm17.156-8.102v-1.906a.715.715 0 0 0-.714-.715H52.152a.715.715 0 0 0-.715.715v1.906c0 .395.32.715.715.715h11.915c.394 0 .714-.32.714-.715Zm0 5.72v-1.907a.715.715 0 0 0-.714-.715H52.152a.715.715 0 0 0-.715.715v1.906c0 .395.32.715.715.715h11.915c.394 0 .714-.32.714-.715Zm0 5.718v-1.906a.715.715 0 0 0-.714-.715H52.152a.715.715 0 0 0-.715.715v1.906c0 .395.32.715.715.715h11.915c.394 0 .714-.32.714-.715Z" fill="#fff" fill-rule="evenodd" data-name="Icon awesome-list-alt"/></svg>