<svg xmlns="http://www.w3.org/2000/svg" width="88.186" height="70.546" viewBox="621 727.599 88.186 70.546"><path d="M638.638 740.826a6.615 6.615 0 0 0 6.614-6.613 6.615 6.615 0 0 0-6.614-6.614 6.615 6.615 0 0 0-6.613 6.614 6.615 6.615 0 0 0 6.613 6.613Zm52.91 0a6.615 6.615 0 0 0 6.613-6.613 6.615 6.615 0 0 0-6.614-6.614 6.615 6.615 0 0 0-6.613 6.614 6.615 6.615 0 0 0 6.613 6.613Zm17.319 51.27-6.063-15.156-5.663 6.393-.275 2.507 3.816 9.535a4.405 4.405 0 0 0 5.732 2.453 4.407 4.407 0 0 0 2.453-5.732Zm-4.712-28.907-2.55-11.05a8.93 8.93 0 0 0-5.166-6.187c-2.55-1.102-5.374-.923-7.73.455a15.096 15.096 0 0 0-6.627 8.184l-1.557 4.67-2.205 1.406V747.44a2.211 2.211 0 0 0-2.204-2.205H654.07a2.211 2.211 0 0 0-2.205 2.205v13.227l-2.218-1.405-1.557-4.671a14.988 14.988 0 0 0-6.627-8.184 8.504 8.504 0 0 0-7.73-.455 8.93 8.93 0 0 0-5.167 6.186l-2.535 11.05a8.828 8.828 0 0 0 1.984 7.813l9.26 10.458 1.39 12.759a4.413 4.413 0 0 0 4.382 3.927c.166 0 .317-.014.483-.028a4.402 4.402 0 0 0 3.899-4.864l-1.392-12.786a8.806 8.806 0 0 0-2.15-4.823l-5.965-6.751 2.425-9.686.937 2.81c.565 1.723 1.64 3.225 3.375 4.492l7.041 4.478c.634.4 1.667.634 2.37.69h22.046c.702-.056 1.736-.29 2.37-.69l7.04-4.478c1.736-1.267 2.811-2.755 3.376-4.491l.937-2.811 2.425 9.686-5.966 6.751a8.806 8.806 0 0 0-2.15 4.823l-1.391 12.786c-.262 2.425 1.488 4.602 3.899 4.864.165.014.317.028.482.028a4.411 4.411 0 0 0 4.382-3.927l1.391-12.76 9.26-10.457a8.868 8.868 0 0 0 1.984-7.812Zm-76.774 13.75-6.062 15.157a4.407 4.407 0 0 0 2.452 5.732 4.417 4.417 0 0 0 5.732-2.453l3.817-9.535-.276-2.507-5.663-6.393Z" fill="#232a3b" fill-rule="evenodd" data-name="Icon awesome-people-carry"/></svg>