<svg xmlns="http://www.w3.org/2000/svg" width="66.25" height="66.25" viewBox="632 211.895 66.25 66.25"><path d="M693.518 237.921h-21.295v-21.294a4.733 4.733 0 0 0-4.732-4.732h-4.732a4.733 4.733 0 0 0-4.732 4.732v21.294h-21.295a4.733 4.733 0 0 0-4.732 4.732v4.733a4.733 4.733 0 0 0 4.732 4.732h21.295v21.294a4.733 4.733 0 0 0 4.732 4.733h4.732a4.733 4.733 0 0 0 4.732-4.733v-21.294h21.295a4.733 4.733 0 0 0 4.732-4.732v-4.733a4.733 4.733 0 0 0-4.732-4.732Z" fill="#232a3b" fill-rule="evenodd" data-name="Icon awesome-plus"/></svg>