<svg width="17" height="11" viewBox="0 0 17 11" fill="none" xmlns="http://www.w3.org/2000/svg">
<path d="M8.48667 10.9963C8.20344 10.997 7.92896 10.8692 7.71088 10.635L0.437897 2.78196C0.190353 2.51536 0.0346815 2.13227 0.00512927 1.71696C-0.024423 1.30165 0.0745647 0.888134 0.280316 0.567388C0.486067 0.246642 0.781727 0.0449373 1.10226 0.00664609C1.42278 -0.0316451 1.74192 0.0966137 1.98947 0.363208L8.48667 7.39957L14.9839 0.614508C15.1079 0.484043 15.2505 0.386615 15.4037 0.327824C15.5568 0.269033 15.7174 0.250038 15.8762 0.271931C16.0351 0.293825 16.189 0.356173 16.3292 0.455395C16.4693 0.554617 16.593 0.688755 16.693 0.8501C16.804 1.01159 16.8881 1.20105 16.94 1.4066C16.9918 1.61216 17.0104 1.82937 16.9945 2.04465C16.9785 2.25992 16.9285 2.46861 16.8474 2.65765C16.7663 2.84668 16.656 3.01198 16.5233 3.1432L9.25033 10.7293C9.02598 10.9264 8.7571 11.0204 8.48667 10.9963Z" fill="black"/>
</svg>
