<svg width="31" height="25" viewBox="0 0 31 25" fill="none" xmlns="http://www.w3.org/2000/svg">
<path d="M6.19963 4.6875C7.48322 4.6875 8.52463 3.6377 8.52463 2.34375C8.52463 1.0498 7.48322 0 6.19963 0C4.91603 0 3.87463 1.0498 3.87463 2.34375C3.87463 3.6377 4.91603 4.6875 6.19963 4.6875ZM24.7996 4.6875C26.0832 4.6875 27.1246 3.6377 27.1246 2.34375C27.1246 1.0498 26.0832 0 24.7996 0C23.516 0 22.4746 1.0498 22.4746 2.34375C22.4746 3.6377 23.516 4.6875 24.7996 4.6875ZM30.8882 22.8564L28.757 17.4854L26.7662 19.751L26.6693 20.6396L28.011 24.0186C28.2532 24.6289 28.8345 25 29.4496 25C29.6434 25 29.8371 24.9658 30.026 24.8877C30.8204 24.5654 31.2079 23.6572 30.8882 22.8564ZM29.2317 12.6123L28.3356 8.69629C28.1127 7.71973 27.4346 6.89941 26.5192 6.50391C25.6231 6.11328 24.6301 6.17676 23.8018 6.66504C22.7023 7.31934 21.8788 8.34961 21.472 9.56543L20.9246 11.2207L20.1496 11.7188V7.03125C20.1496 6.60156 19.8009 6.25 19.3746 6.25H11.6246C11.1984 6.25 10.8496 6.60156 10.8496 7.03125V11.7188L10.0698 11.2207L9.52244 9.56543C9.12041 8.34473 8.29213 7.31934 7.1926 6.66504C6.35947 6.17676 5.37135 6.11328 4.47525 6.50391C3.55978 6.89941 2.88166 7.71973 2.65885 8.69629L1.7676 12.6123C1.54478 13.5889 1.8015 14.624 2.4651 15.3809L5.7201 19.0869L6.20931 23.6084C6.2965 24.4043 6.96494 25 7.74963 25C7.80775 25 7.86103 24.9951 7.91916 24.9902C8.77166 24.8975 9.38197 24.126 9.28994 23.2666L8.80072 18.7354C8.72806 18.1006 8.4665 17.5098 8.0451 17.0264L5.94775 14.6338L6.80025 11.2012L7.12963 12.1973C7.32822 12.8076 7.70603 13.3398 8.31635 13.7891L10.7915 15.376C11.0143 15.5176 11.3776 15.6006 11.6246 15.6201H19.3746C19.6217 15.6006 19.9849 15.5176 20.2078 15.376L22.6829 13.7891C23.2932 13.3398 23.671 12.8125 23.8696 12.1973L24.199 11.2012L25.0515 14.6338L22.9542 17.0264C22.5328 17.5098 22.2712 18.1006 22.1985 18.7354L21.7093 23.2666C21.6173 24.126 22.2324 24.8975 23.0801 24.9902C23.1382 24.9951 23.1915 25 23.2496 25C24.0295 25 24.7028 24.4092 24.7899 23.6084L25.2792 19.0869L28.5342 15.3809C29.1929 14.624 29.4545 13.5889 29.2317 12.6123ZM2.24228 17.4854L0.111033 22.8564C-0.208654 23.6572 0.178846 24.5654 0.973221 24.8877C1.78697 25.21 2.67338 24.8047 2.98822 24.0186L4.32994 20.6396L4.23306 19.751L2.24228 17.4854Z" fill="#367CE4"/>
</svg>
