<svg width="84" height="84" viewBox="0 0 84 84" fill="none" xmlns="http://www.w3.org/2000/svg">
<path d="M75.1877 27.5043C75.2835 26.7793 75.3335 26.0543 75.3335 25.3335C75.3335 15.421 66.4043 7.46683 56.496 8.81266C53.6085 3.67516 48.1085 0.333496 42.0002 0.333496C35.8918 0.333496 30.3918 3.67516 27.5043 8.81266C17.5752 7.46683 8.66683 15.421 8.66683 25.3335C8.66683 26.0543 8.71683 26.7793 8.81266 27.5043C3.67516 30.396 0.333496 35.896 0.333496 42.0002C0.333496 48.1043 3.67516 53.6043 8.81266 56.496C8.71654 57.2156 8.66782 57.9408 8.66683 58.6668C8.66683 68.5793 17.5752 76.5127 27.5043 75.1877C30.3918 80.3252 35.8918 83.6668 42.0002 83.6668C48.1085 83.6668 53.6085 80.3252 56.496 75.1877C66.4043 76.5127 75.3335 68.5793 75.3335 58.6668C75.3335 57.946 75.2835 57.221 75.1877 56.496C80.3252 53.6043 83.6668 48.1043 83.6668 42.0002C83.6668 35.896 80.3252 30.396 75.1877 27.5043ZM37.646 60.4002L22.3668 44.9252L28.3002 39.0752L37.7043 48.6002L55.7335 30.7085L61.6002 36.6252L37.646 60.4002Z" fill="#232A3B"/>
</svg>
