<svg width="84" height="84" viewBox="0 0 84 84" fill="none" xmlns="http://www.w3.org/2000/svg">
<path d="M0 60C0 58.4087 0.632141 56.8826 1.75736 55.7574C2.88258 54.6321 4.4087 54 6 54H18C19.5913 54 21.1174 54.6321 22.2426 55.7574C23.3679 56.8826 24 58.4087 24 60V78C24 79.5913 23.3679 81.1174 22.2426 82.2426C21.1174 83.3679 19.5913 84 18 84H6C4.4087 84 2.88258 83.3679 1.75736 82.2426C0.632141 81.1174 0 79.5913 0 78V60ZM30 36C30 34.4087 30.6321 32.8826 31.7574 31.7574C32.8826 30.6321 34.4087 30 36 30H48C49.5913 30 51.1174 30.6321 52.2426 31.7574C53.3679 32.8826 54 34.4087 54 36V78C54 79.5913 53.3679 81.1174 52.2426 82.2426C51.1174 83.3679 49.5913 84 48 84H36C34.4087 84 32.8826 83.3679 31.7574 82.2426C30.6321 81.1174 30 79.5913 30 78V36ZM60 6C60 4.4087 60.6321 2.88258 61.7574 1.75736C62.8826 0.632141 64.4087 0 66 0H78C79.5913 0 81.1174 0.632141 82.2426 1.75736C83.3679 2.88258 84 4.4087 84 6V78C84 79.5913 83.3679 81.1174 82.2426 82.2426C81.1174 83.3679 79.5913 84 78 84H66C64.4087 84 62.8826 83.3679 61.7574 82.2426C60.6321 81.1174 60 79.5913 60 78V6Z" fill="#232A3B"/>
</svg>
