<svg width="18" height="23" viewBox="0 0 18 23" fill="none" xmlns="http://www.w3.org/2000/svg">
<path d="M12.64 16.232L11.296 23H10C9.75467 23 9.54667 22.9093 9.376 22.728C9.20533 22.5467 9.12 22.312 9.12 22.024C9.12 21.9813 9.12 21.944 9.12 21.912C9.13067 21.8693 9.14133 21.8213 9.152 21.768L10.288 16.232H6.336L5.2 21.912C5.11467 22.3067 4.94933 22.5893 4.704 22.76C4.46933 22.92 4.19733 23 3.888 23H2.624L3.984 16.232H1.648C1.40267 16.232 1.21067 16.1733 1.072 16.056C0.933333 15.928 0.864 15.7147 0.864 15.416C0.864 15.3627 0.864 15.304 0.864 15.24C0.874667 15.176 0.885333 15.112 0.896 15.048L1.024 14.136H4.288L5.328 8.92H1.616L1.824 7.736C1.87733 7.42667 2 7.19733 2.192 7.048C2.384 6.89867 2.688 6.824 3.104 6.824H5.632L6.784 1.096C6.848 0.775999 6.992 0.525333 7.216 0.344C7.45067 0.162666 7.728 0.0719986 8.048 0.0719986H9.328L7.984 6.824H11.936L13.28 0.0719986H14.544C14.8107 0.0719986 15.0293 0.151999 15.2 0.311998C15.3813 0.471998 15.472 0.679998 15.472 0.935999C15.472 1.02133 15.4667 1.09067 15.456 1.144L14.288 6.824H17.68L17.472 8.024C17.4187 8.33333 17.2907 8.56267 17.088 8.712C16.896 8.85067 16.5973 8.92 16.192 8.92H13.984L12.944 14.136H15.808C16.064 14.136 16.2613 14.2 16.4 14.328C16.5387 14.4453 16.608 14.6587 16.608 14.968C16.608 15.0213 16.6027 15.08 16.592 15.144C16.592 15.1973 16.5867 15.256 16.576 15.32L16.432 16.232H12.64ZM6.64 14.136H10.592L11.632 8.92H7.68L6.64 14.136Z" fill="#367CE4"/>
</svg>
