<svg width="36" height="36" viewBox="0 0 36 36" fill="none" xmlns="http://www.w3.org/2000/svg">
<path d="M33 18.9999C32.8684 19.0007 32.738 18.9755 32.6161 18.9257C32.4943 18.876 32.3835 18.8026 32.29 18.7099L18 4.40995L3.71003 18.7099C3.51873 18.8738 3.27265 18.9594 3.02097 18.9497C2.7693 18.9399 2.53056 18.8356 2.35246 18.6575C2.17437 18.4794 2.07004 18.2407 2.06032 17.989C2.05059 17.7373 2.1362 17.4912 2.30003 17.2999L17.3 2.29995C17.4874 2.1137 17.7408 2.00916 18.005 2.00916C18.2692 2.00916 18.5227 2.1137 18.71 2.29995L33.71 17.2999C33.8476 17.4403 33.9408 17.6182 33.9779 17.8112C34.015 18.0042 33.9944 18.2039 33.9186 18.3853C33.8429 18.5667 33.7153 18.7218 33.552 18.8311C33.3886 18.9404 33.1966 18.9991 33 18.9999V18.9999Z" fill="white"/>
<path d="M18 7.79004L6 19.83V32C6 32.5305 6.21071 33.0392 6.58579 33.4143C6.96086 33.7893 7.46957 34 8 34H15V24H21V34H28C28.5304 34 29.0391 33.7893 29.4142 33.4143C29.7893 33.0392 30 32.5305 30 32V19.76L18 7.79004Z" fill="white"/>
</svg>
