<svg width="84" height="70" viewBox="0 0 84 70" fill="none" xmlns="http://www.w3.org/2000/svg">
<path d="M12.7812 0.0625C15.0152 0.0625 16.8125 1.86816 16.8125 4.09375V12.1562C16.8125 14.3902 15.0152 16.1875 12.7812 16.1875H4.71875C2.49316 16.1875 0.6875 14.3902 0.6875 12.1562V4.09375C0.6875 1.86816 2.49316 0.0625 4.71875 0.0625H12.7812ZM78.625 2.75C81.598 2.75 84 5.15699 84 8.125C84 11.098 81.598 13.5 78.625 13.5H30.25C27.277 13.5 24.875 11.098 24.875 8.125C24.875 5.15699 27.277 2.75 30.25 2.75H78.625ZM78.625 29.625C81.598 29.625 84 32.027 84 35C84 37.973 81.598 40.375 78.625 40.375H30.25C27.277 40.375 24.875 37.973 24.875 35C24.875 32.027 27.277 29.625 30.25 29.625H78.625ZM78.625 56.5C81.598 56.5 84 58.902 84 61.875C84 64.848 81.598 67.25 78.625 67.25H30.25C27.277 67.25 24.875 64.848 24.875 61.875C24.875 58.902 27.277 56.5 30.25 56.5H78.625ZM0.6875 30.9688C0.6875 28.7348 2.49316 26.9375 4.71875 26.9375H12.7812C15.0152 26.9375 16.8125 28.7348 16.8125 30.9688V39.0312C16.8125 41.2652 15.0152 43.0625 12.7812 43.0625H4.71875C2.49316 43.0625 0.6875 41.2652 0.6875 39.0312V30.9688ZM12.7812 53.8125C15.0152 53.8125 16.8125 55.6098 16.8125 57.8438V65.9062C16.8125 68.1402 15.0152 69.9375 12.7812 69.9375H4.71875C2.49316 69.9375 0.6875 68.1402 0.6875 65.9062V57.8438C0.6875 55.6098 2.49316 53.8125 4.71875 53.8125H12.7812Z" fill="#232A3B"/>
</svg>
