<svg width="44" height="37" viewBox="0 0 44 37" fill="none" xmlns="http://www.w3.org/2000/svg">
<path d="M22.4991 28C27.643 28 31.8222 23.9989 32 19C31.8222 14.0011 27.643 10 22.4991 10C17.3558 10 13.1755 14.0011 13 19C13.1749 23.9989 17.3552 28 22.4991 28Z" fill="white"/>
<path d="M22.5506 2.2002C13.6406 2.2002 6.4165 9.42356 6.4165 18.3336C6.4165 27.2429 13.6413 34.467 22.5506 34.467C31.4599 34.467 38.684 27.2429 38.684 18.3336C38.684 9.42356 31.4599 2.2002 22.5506 2.2002ZM22.5499 30.067C16.0694 30.067 10.8158 24.9915 10.8158 18.7289C10.8158 18.5954 10.8341 18.4656 10.8385 18.3336C10.8341 18.2016 10.8158 18.0711 10.8158 17.9383C10.8158 11.6756 16.0701 6.60021 22.5499 6.60021C29.0304 6.60021 34.2833 11.6756 34.2833 17.9383C34.2833 18.0711 34.2679 18.2016 34.2642 18.3336C34.2686 18.4656 34.2833 18.5954 34.2833 18.7289C34.2825 24.9915 29.0304 30.067 22.5499 30.067Z" fill="white"/>
<path d="M1.08638 0.308803C1.26238 -0.381266 1.61072 0.300736 1.61072 0.300736C1.61072 0.300736 1.73245 7.44343 2.52446 7.52116C3.31646 7.5989 2.70632 0.171669 3.64353 0.0294018C4.51473 -0.109199 4.01753 7.63923 4.811 7.56076C5.60153 7.47716 5.735 0.337403 5.735 0.337403C5.735 0.337403 6.087 -0.343866 6.2608 0.34107C8.40801 8.78177 6.67074 12.2321 6.67074 12.2321C6.67074 12.2321 6.3774 12.9574 5.68073 12.9611C5.61547 12.9574 5.6646 33.0075 5.6602 35.7033C5.66167 37.0137 1.62685 36.9734 1.62905 35.6688C1.63199 32.9731 1.71045 12.9251 1.64739 12.9266C0.948517 12.9266 0.655916 12.202 0.655916 12.202C0.655916 12.202 -1.07476 8.7539 1.08638 0.308803V0.308803ZM39.3218 6.84048e-05C40.2297 -0.0021316 43.9961 2.71341 44.0005 12.8056C44.0049 16.033 42.2441 16.0323 42.2471 18.0511C42.25 20.0663 42.261 36.0956 42.261 36.0956C42.261 36.0956 40.3294 37.4207 38.8935 36.034L38.8671 0.286803C38.8686 0.287536 38.8635 -0.000664931 39.3218 6.84048e-05Z" fill="white"/>
</svg>
