<svg width="24" height="24" viewBox="0 0 24 24" fill="none" xmlns="http://www.w3.org/2000/svg">
<path d="M2.625 23.25C2.625 23.25 0.75 23.25 0.75 21.375C0.75 19.5 2.625 13.875 12 13.875C21.375 13.875 23.25 19.5 23.25 21.375C23.25 23.25 21.375 23.25 21.375 23.25H2.625ZM12 12C13.4918 12 14.9226 11.4074 15.9775 10.3525C17.0324 9.29758 17.625 7.86684 17.625 6.375C17.625 4.88316 17.0324 3.45242 15.9775 2.39752C14.9226 1.34263 13.4918 0.75 12 0.75C10.5082 0.75 9.07742 1.34263 8.02252 2.39752C6.96763 3.45242 6.375 4.88316 6.375 6.375C6.375 7.86684 6.96763 9.29758 8.02252 10.3525C9.07742 11.4074 10.5082 12 12 12Z" fill="#F48523"/>
</svg>
