<svg width="40" height="36" viewBox="0 0 40 36" fill="none" xmlns="http://www.w3.org/2000/svg">
<path d="M0 6.75C0 4.26445 1.98958 2.25 4.44444 2.25H35.5556C38.0069 2.25 40 4.26445 40 6.75V29.25C40 31.732 38.0069 33.75 35.5556 33.75H4.44444C1.98958 33.75 0 31.732 0 29.25V6.75ZM11.1111 18C11.1111 16.7555 10.1181 15.75 8.88889 15.75C7.65972 15.75 6.66667 16.7555 6.66667 18C6.66667 19.2445 7.65972 20.25 8.88889 20.25C10.1181 20.25 11.1111 19.2445 11.1111 18ZM11.1111 11.25C11.1111 10.0055 10.1181 9 8.88889 9C7.65972 9 6.66667 10.0055 6.66667 11.25C6.66667 12.4945 7.65972 13.5 8.88889 13.5C10.1181 13.5 11.1111 12.4945 11.1111 11.25ZM11.1111 24.75C11.1111 23.5055 10.1181 22.5 8.88889 22.5C7.65972 22.5 6.66667 23.5055 6.66667 24.75C6.66667 25.9945 7.65972 27 8.88889 27C10.1181 27 11.1111 25.9945 11.1111 24.75ZM15.5556 9.5625C14.6319 9.5625 13.8889 10.3148 13.8889 11.25C13.8889 12.1852 14.6319 12.9375 15.5556 12.9375H31.1111C32.0347 12.9375 32.7778 12.1852 32.7778 11.25C32.7778 10.3148 32.0347 9.5625 31.1111 9.5625H15.5556ZM15.5556 16.3125C14.6319 16.3125 13.8889 17.0648 13.8889 18C13.8889 18.9352 14.6319 19.6875 15.5556 19.6875H31.1111C32.0347 19.6875 32.7778 18.9352 32.7778 18C32.7778 17.0648 32.0347 16.3125 31.1111 16.3125H15.5556ZM15.5556 23.0625C14.6319 23.0625 13.8889 23.8148 13.8889 24.75C13.8889 25.6852 14.6319 26.4375 15.5556 26.4375H31.1111C32.0347 26.4375 32.7778 25.6852 32.7778 24.75C32.7778 23.8148 32.0347 23.0625 31.1111 23.0625H15.5556Z" fill="white"/>
</svg>
