<svg width="38" height="28" viewBox="0 0 38 28" fill="none" xmlns="http://www.w3.org/2000/svg">
<path d="M33.7778 0.5C36.1066 0.5 38 2.51445 38 5V23C38 25.482 36.1066 27.5 33.7778 27.5H4.22222C1.8901 27.5 0 25.482 0 23V5C0 2.51445 1.8901 0.5 4.22222 0.5H33.7778ZM17.9444 9.5C17.3639 9.5 16.8889 10.0063 16.8889 10.625C16.8889 11.2437 17.3639 11.75 17.9444 11.75H32.7222C33.3028 11.75 33.7778 11.2437 33.7778 10.625C33.7778 10.0063 33.3028 9.5 32.7222 9.5H17.9444ZM17.9444 18.5H32.7222C33.3028 18.5 33.7778 17.9937 33.7778 17.375C33.7778 16.7563 33.3028 16.25 32.7222 16.25H17.9444C17.3639 16.25 16.8889 16.7563 16.8889 17.375C16.8889 17.9937 17.3639 18.5 17.9444 18.5ZM10.826 7.25C10.826 6.46953 10.2323 5.83672 9.44063 5.83672C8.76771 5.83672 8.17396 6.46953 8.17396 7.25V7.67188C7.80451 7.75625 7.39549 7.87578 7.125 8.03047C6.13938 8.50859 5.2824 9.39453 5.07392 10.6813C4.95715 11.3984 5.01917 12.0945 5.29889 12.7203C5.57267 13.3391 6.00347 13.775 6.44087 14.0914C7.20417 14.6469 8.21354 14.9703 8.98542 15.2164L9.13056 15.2586C10.0542 15.5609 10.6743 15.7789 11.0635 16.0813C11.2285 16.2078 11.2878 16.3063 11.3076 16.3695C11.334 16.4258 11.3736 16.5523 11.3274 16.8336C11.2878 17.0797 11.1625 17.2906 10.7997 17.4523C10.3972 17.6352 9.7441 17.7266 8.89965 17.5859C8.50382 17.5156 7.79792 17.2625 7.17118 17.0375C7.02604 16.9813 6.8809 16.932 6.74896 16.8828C6.05889 16.6367 5.31142 17.0375 5.08118 17.7758C4.85094 18.5141 5.225 19.3086 5.91639 19.4914C5.99622 19.5828 6.09517 19.618 6.20865 19.6602C6.66979 19.85 7.54722 20.1453 8.17396 20.3V20.75C8.17396 21.5305 8.76771 22.1633 9.44063 22.1633C10.2323 22.1633 10.826 21.5305 10.826 20.75V20.3633C11.1757 20.293 11.5188 20.1242 11.8354 20.0398C12.8778 19.5688 13.709 18.6547 13.9267 17.3188C14.0455 16.5875 13.9927 15.8844 13.7288 15.2445C13.4715 14.6117 13.0559 14.1477 12.6139 13.8102C11.8156 13.1844 10.7469 12.8469 9.94861 12.5867L9.83646 12.5727C8.95903 12.2703 8.32569 12.0594 7.92326 11.7641C7.75174 11.6375 7.69896 11.5531 7.68576 11.518C7.67257 11.4898 7.63299 11.4055 7.67257 11.1664C7.69896 11.0258 7.79792 10.7938 8.21354 10.5969C8.58299 10.393 9.29549 10.2805 10.1003 10.3508C10.3906 10.4633 11.2812 10.6461 11.5385 10.7164C12.2378 10.9203 12.9635 10.4703 13.1483 9.71797C13.3396 8.97266 12.9174 8.19922 12.2115 8.00234C11.9212 7.91797 11.2615 7.77734 10.826 7.69297V7.25Z" fill="white"/>
</svg>
