<svg width="95" height="76" viewBox="0 0 95 76" fill="none" xmlns="http://www.w3.org/2000/svg">
<path d="M19.0003 14.25C22.9339 14.25 26.1253 11.0586 26.1253 7.125C26.1253 3.19141 22.9339 0 19.0003 0C15.0667 0 11.8753 3.19141 11.8753 7.125C11.8753 11.0586 15.0667 14.25 19.0003 14.25ZM76.0003 14.25C79.9339 14.25 83.1253 11.0586 83.1253 7.125C83.1253 3.19141 79.9339 0 76.0003 0C72.0667 0 68.8753 3.19141 68.8753 7.125C68.8753 11.0586 72.0667 14.25 76.0003 14.25ZM94.6589 69.4836L88.1276 53.1555L82.0268 60.043L81.7299 62.7445L85.8417 73.0164C86.5839 74.8719 88.3651 76 90.2503 76C90.844 76 91.4378 75.8961 92.0167 75.6586C94.451 74.6789 95.6385 71.918 94.6589 69.4836ZM89.5823 38.3414L86.8362 26.4367C86.1534 23.468 84.0753 20.9742 81.2698 19.7719C78.5237 18.5844 75.4807 18.7773 72.9425 20.2617C69.5729 22.2508 67.0495 25.3828 65.8026 29.0789L64.1253 34.1109L61.7503 35.625V21.375C61.7503 20.0688 60.6815 19 59.3753 19H35.6253C34.319 19 33.2503 20.0688 33.2503 21.375V35.625L30.8604 34.1109L29.1831 29.0789C27.9511 25.368 25.4128 22.2508 22.0432 20.2617C19.4901 18.7773 16.462 18.5844 13.7159 19.7719C10.9104 20.9742 8.8323 23.468 8.14949 26.4367L5.41824 38.3414C4.73543 41.3102 5.52215 44.457 7.55574 46.7578L17.5307 58.0242L19.03 71.7695C19.2971 74.1891 21.3456 76 23.7503 76C23.9284 76 24.0917 75.9852 24.2698 75.9703C26.8823 75.6883 28.7526 73.343 28.4706 70.7305L26.9714 56.9555C26.7487 55.0258 25.9471 53.2297 24.6557 51.7602L18.2284 44.4867L20.8409 34.0516L21.8503 37.0797C22.4589 38.9352 23.6167 40.5531 25.487 41.9188L33.0721 46.743C33.755 47.1734 34.8682 47.4258 35.6253 47.4852H59.3753C60.1323 47.4258 61.2456 47.1734 61.9284 46.743L69.5135 41.9188C71.3839 40.5531 72.5417 38.95 73.1503 37.0797L74.1596 34.0516L76.7721 44.4867L70.3448 51.7602C69.0534 53.2297 68.2518 55.0258 68.0292 56.9555L66.53 70.7305C66.2479 73.343 68.1331 75.6883 70.7307 75.9703C70.9089 75.9852 71.0721 76 71.2503 76C73.6401 76 75.7034 74.2039 75.9706 71.7695L77.4698 58.0242L87.4448 46.7578C89.4635 44.457 90.2651 41.3102 89.5823 38.3414ZM6.87293 53.1555L0.341676 69.4836C-0.638011 71.918 0.549489 74.6789 2.98386 75.6586C5.47761 76.6383 8.19402 75.4062 9.15886 73.0164L13.2706 62.7445L12.9737 60.043L6.87293 53.1555Z" fill="#232A3B"/>
</svg>
