<svg xmlns="http://www.w3.org/2000/svg" width="27" height="27.007" viewBox="40 463.997 27 27.007"><path d="M64.771 477.496c0-1.476.921-2.735 2.229-3.24a13.772 13.772 0 0 0-1.666-4.016 3.52 3.52 0 0 1-1.414.303 3.478 3.478 0 0 1-2.454-1.013 3.477 3.477 0 0 1-.717-3.867 13.73 13.73 0 0 0-4.008-1.667 3.477 3.477 0 0 1-3.241 2.23 3.477 3.477 0 0 1-3.241-2.23 13.772 13.772 0 0 0-4.015 1.667 3.467 3.467 0 0 1-4.585 4.577A14.076 14.076 0 0 0 40 474.262a3.47 3.47 0 0 1 2.229 3.241 3.478 3.478 0 0 1-2.222 3.242 13.772 13.772 0 0 0 1.666 4.015 3.478 3.478 0 0 1 3.86.717 3.478 3.478 0 0 1 .718 3.86 13.852 13.852 0 0 0 4.015 1.666 3.462 3.462 0 0 1 3.234-2.221c1.477 0 2.735.92 3.234 2.221a13.772 13.772 0 0 0 4.015-1.666 3.48 3.48 0 0 1 .717-3.86 3.454 3.454 0 0 1 2.454-1.013c.478 0 .964.099 1.407.296a13.852 13.852 0 0 0 1.666-4.015 3.49 3.49 0 0 1-2.222-3.249Zm-11.208 5.618a5.623 5.623 0 0 1-5.625-5.625c0-3.1 2.51-5.625 5.625-5.625a5.623 5.623 0 0 1 5.625 5.625c0 3.101-2.51 5.625-5.625 5.625Z" fill="#fff" fill-rule="evenodd" data-name="Icon ionic-ios-settings"/></svg>