<svg xmlns="http://www.w3.org/2000/svg" width="185.795" height="41" viewBox="40 28 185.795 41"><g data-name="Goldpos light-01"><path d="m191.81 49.22 2.134-1.56c1.114 2.108 3.632 3.518 6.24 3.518 3.225 0 5.843-1.739 5.843-4.163 0-2.761-3.518-4.104-6.666-5.276-3.022-1.173-6.393-2.656-6.393-6.449 0-3.793 3.403-6.607 7.72-6.607 3.644 0 6.133 2 7.036 4.423l-2.09 1.404c-.795-1.846-2.776-3.095-4.983-3.095-2.639 0-4.896 1.738-4.896 3.934 0 2.38 2.7 3.25 5.863 4.47 3.693 1.495 7.184 3.204 7.184 7.155 0 4.242-3.919 7.003-8.647 7.003-4.03-.026-7.173-2.13-8.345-4.757Z" fill="#fff" fill-rule="evenodd" data-name="Path 29"/><path d="M164.197 41.334a12.64 12.64 0 1 1 12.605 12.605c-6.944-.043-12.562-5.661-12.605-12.605Zm22.471 0c.013-5.43-4.378-9.842-9.808-9.854-5.43-.013-9.842 4.378-9.855 9.808-.013 5.43 4.378 9.842 9.808 9.855a9.878 9.878 0 0 0 9.855-9.823Z" fill="#fff" fill-rule="evenodd" data-name="Path 28"/><path d="M145.677 29.023h7.794c4.76 0 8.65 3.57 8.65 7.932 0 4.18-3.89 7.583-8.65 7.583h-5.01v9.087h-2.784V29.023Zm13.669 7.915c0-2.838-2.638-5.157-5.863-5.157h-5.021v10.017h5.018c3.228.023 5.866-2.172 5.866-4.872Z" fill="#fff" fill-rule="evenodd" data-name="Path 27"/><path d="M202.448 105.206c-1.008-.536-2.11-.621-3.224-.683-5.675-.322-11.35-.331-17.03-.187-2.202.052-4.418.293-6.626 0l-.419.105-.615.02c-3.442.182-6.877.475-10.327.346-.88.376-1.78.2-2.674.173a43.48 43.48 0 0 1-6.68.294c-.838.436-1.732.199-2.603.228l-2.465.044c-3.187.516-6.414.47-9.618.707-5.52.404-11.048.7-16.573 1.04-10.553.783-29.841 2.178-40.405 2.984-6.05.46-12.098.985-18.148 1.466-4.124.328-8.255.633-12.382.95l-.853.088c-.557.334-1.158.228-1.759.19l-4.036.346a.513.513 0 0 1-.586.073l-2.301.182c-.458.293-.962.229-1.466.182-2.823.293-5.657.548-8.471.92-3.436.449-6.924.586-10.26 1.642-1.521.486-3.004 1.073-4.13 2.277-1.187 1.273-1.052 2.794.293 3.881.739.587 1.636.8 2.503 1.085.496 0 1-.117 1.466.164a26.84 26.84 0 0 1 4.315.032c.176-.069.36-.115.548-.137 9.77.058 19.4-1.498 29.04-2.724 9.967-1.269 19.919-2.878 29.935-3.886 8.817-.88 26.595-2.72 35.41-3.624l22.864-1.758c5.033-.387 10.06-.88 15.11-1.047l1.422-.09c.566-.311 1.173-.203 1.76-.156 4.891-.343 9.778-.815 14.676-.997 8.052-.293 16.081-1.697 24.172-.633 1.028.135 1.53-.349 1.465-1.422a2.345 2.345 0 0 0-1.328-2.075Z" fill-rule="evenodd" fill="url(&quot;#a&quot;)" transform="translate(22.013 -54.755)" data-name="Path 26"/><path d="M307.215 45.53c0 7.622-5.112 12.265-13.484 12.265h-8.011V33.22h8.023c8.36-.044 13.472 4.626 13.472 12.312Zm-6.545 0c0-3.874-2.685-6.22-7.094-6.22h-1.495v12.341h1.556c4.362-.003 7.033-2.321 7.033-6.135Z" fill-rule="evenodd" fill="url(&quot;#b&quot;)" transform="translate(-167.24 -4.548)" data-name="Path 25"/><path d="M237.803 51.628v6.133H221.86V33.17h6.53v18.467l9.413-.009Z" fill-rule="evenodd" fill="url(&quot;#c&quot;)" transform="translate(-122.099 -4.513)" data-name="Path 24"/><path d="M118.82 43.913c0-7.384 5.863-12.983 13.502-12.983 7.638 0 13.498 5.59 13.498 12.983 0 7.328-5.862 12.897-13.516 12.897s-13.484-5.575-13.484-12.897Zm20.396-.044c0-3.811-2.99-6.728-6.894-6.728-3.905 0-6.898 2.932-6.898 6.728s2.99 6.695 6.898 6.695c3.907 0 6.894-2.905 6.894-6.695Z" fill-rule="evenodd" fill="url(&quot;#d&quot;)" transform="translate(-49.263 -2.93)" data-name="Path 23"/><path d="M47.996 44.555c0 7.474-5.642 12.311-12.63 12.311-7.812 0-13.716-5.827-13.716-12.845 0-7.017 5.921-12.921 13.548-12.921 3.128.047 6.742 1.375 8.77 3.25l-3.613 4.97a7.915 7.915 0 0 0-5.157-2.094c-3.66 0-6.88 2.993-6.88 6.792 0 3.447 2.762 6.804 7.308 6.804 2.973 0 5.095-1.434 5.186-3.785h-5.628v-4.866h12.604c.127.789.196 1.585.208 2.384Z" fill-rule="evenodd" fill="url(&quot;#e&quot;)" transform="translate(19.424 -3.05)" data-name="Path 22"/></g><defs><linearGradient x1=".568" y1="-.857" x2=".388" y2="2.758" id="e"><stop stop-color="#f48523" offset="0"/><stop stop-color="#e7ac38" offset=".29"/><stop stop-color="#8b4729" offset=".62"/><stop stop-color="#bc9c62" offset="1"/></linearGradient><linearGradient x1=".563" y1="-.795" x2=".388" y2="2.804" id="d"><stop stop-color="#f48523" offset="0"/><stop stop-color="#e7ac38" offset=".29"/><stop stop-color="#8b4729" offset=".62"/><stop stop-color="#bc9c62" offset="1"/></linearGradient><linearGradient x1=".603" y1="-.812" x2=".306" y2="2.975" id="c"><stop stop-color="#f48523" offset="0"/><stop stop-color="#e7ac38" offset=".29"/><stop stop-color="#8b4729" offset=".62"/><stop stop-color="#bc9c62" offset="1"/></linearGradient><linearGradient x1=".56" y1="-.769" x2=".339" y2="3.02" id="b"><stop stop-color="#f48523" offset="0"/><stop stop-color="#e7ac38" offset=".29"/><stop stop-color="#8b4729" offset=".62"/><stop stop-color="#bc9c62" offset="1"/></linearGradient><linearGradient x1="0" y1=".5" x2="1" y2=".5" id="a"><stop stop-color="#f48523" offset="0"/><stop stop-color="#e7ac38" offset=".29"/><stop stop-color="#8b4729" offset=".62"/><stop stop-color="#bc9c62" offset="1"/></linearGradient></defs></svg>