<svg width="36" height="36" viewBox="0 0 36 36" fill="none" xmlns="http://www.w3.org/2000/svg">
<g clip-path="url(#clip0_701_471)">
<path d="M35.824 12.98L32.2667 2.30667C32.0439 1.63436 31.6146 1.04949 31.0401 0.635329C30.4655 0.22117 29.7749 -0.00115719 29.0667 4.52962e-06H19.1253V13.5H35.908C35.8943 13.3247 35.8662 13.1507 35.824 12.98ZM16.8747 4.52962e-06H6.93333C6.22507 -0.00115719 5.53449 0.22117 4.95994 0.635329C4.38538 1.04949 3.95614 1.63436 3.73333 2.30667L0.176 12.98C0.133811 13.1507 0.105716 13.3247 0.092 13.5H16.8747V4.52962e-06ZM0 15.7507V32.6253C0.00035337 33.5202 0.356011 34.3784 0.988807 35.0112C1.6216 35.644 2.47976 35.9996 3.37467 36H32.6253C33.5202 35.9996 34.3784 35.644 35.0112 35.0112C35.644 34.3784 35.9996 33.5202 36 32.6253V15.7507H0Z" fill="white"/>
</g>
<defs>
<clipPath id="clip0_701_471">
<rect width="36" height="36" fill="white"/>
</clipPath>
</defs>
</svg>
