<svg id="Layer_1" data-name="Layer 1" xmlns="http://www.w3.org/2000/svg" xmlns:xlink="http://www.w3.org/1999/xlink" viewBox="0 0 277.39 63.05"><defs><style>.cls-1{fill:url(#linear-gradient);}.cls-2{fill:url(#linear-gradient-2);}.cls-3{fill:url(#linear-gradient-3);}.cls-4{fill:url(#linear-gradient-4);}.cls-5{fill:url(#linear-gradient-5);}.cls-6{fill:#081726;}</style><linearGradient id="linear-gradient" x1="28.34" y1="-30.98" x2="21.46" y2="104.26" gradientUnits="userSpaceOnUse"><stop offset="0" stop-color="#f48523"/><stop offset="0.29" stop-color="#e7ac38"/><stop offset="0.62" stop-color="#8b4729"/><stop offset="1" stop-color="#bc9c62"/></linearGradient><linearGradient id="linear-gradient-2" x1="70.04" y1="-28.86" x2="63.16" y2="106.38" xlink:href="#linear-gradient"/><linearGradient id="linear-gradient-3" x1="105.77" y1="-27.04" x2="98.9" y2="108.19" xlink:href="#linear-gradient"/><linearGradient id="linear-gradient-4" x1="136.47" y1="-25.48" x2="129.59" y2="109.75" xlink:href="#linear-gradient"/><linearGradient id="linear-gradient-5" x1="5.05" y1="46.37" x2="274.86" y2="46.37" xlink:href="#linear-gradient"/></defs><path class="cls-1" d="M44.86,20.63c0,10.85-8.2,17.87-18.34,17.87C15.18,38.5,6.6,30,6.6,19.85S15.2,1.09,26.27,1.09c4.54.07,9.79,2,12.74,4.72L33.76,13A11.46,11.46,0,0,0,26.27,10a10,10,0,0,0-10,9.88c0,5,4,9.88,10.61,9.88,4.32,0,7.4-2.08,7.53-5.5H26.25V17.15H44.57A23.33,23.33,0,0,1,44.86,20.63Z"/><path class="cls-2" d="M48,19.85C48,9.13,56.47,1,67.56,1S87.17,9.13,87.17,19.85,78.66,38.57,67.54,38.57,48,30.48,48,19.85Zm29.62-.07a10,10,0,1,0-10,9.73A9.73,9.73,0,0,0,77.58,19.78Z"/><path class="cls-3" d="M115,28.76v8.9H91.82V2h9.48V28.76Z"/><path class="cls-4" d="M150.21,19.85c0,11.08-7.42,17.81-19.56,17.81H119V2l11.65,0C142.79,1.91,150.21,8.69,150.21,19.85Zm-9.5,0c0-5.61-3.9-9-10.3-9h-2.17V28.73h2.25C136.83,28.73,140.71,25.37,140.71,19.83Z"/><path class="cls-5" d="M272.89,33.6a11,11,0,0,0-4.68-1c-8.24-.47-16.47-.48-24.72-.28a61.79,61.79,0,0,1-9.62,0l-.61.15-.9,0c-5,.26-10,.69-15,.5a8.68,8.68,0,0,1-3.89.25,62.83,62.83,0,0,1-9.7.42c-1.21.64-2.51.29-3.77.33l-3.58.07c-4.63.75-9.32.68-14,1-8,.59-16,1-24.06,1.52-15.34,1.13-43.33,3.16-58.67,4.33-8.79.66-17.57,1.43-26.35,2.13-6,.48-12,.92-18,1.38l-1.24.13a4.14,4.14,0,0,1-2.55.27l-5.86.5a.74.74,0,0,1-.87.11l-3.34.27a3.05,3.05,0,0,1-2.12.26c-4.1.44-8.22.8-12.3,1.33-5,.66-10.06.84-14.9,2.39a13.33,13.33,0,0,0-6,3.31,3.56,3.56,0,0,0,.44,5.63,11,11,0,0,0,3.64,1.58,3.6,3.6,0,0,1,2.12.24,38.49,38.49,0,0,1,6.26,0,3.27,3.27,0,0,1,.79-.2c14.19.09,28.17-2.17,42.17-3.95,14.5-1.84,28.93-4.18,43.47-5.65,12.8-1.29,38.61-3.95,51.42-5.26l33.22-2.57c7.31-.56,14.61-1.28,21.94-1.52l2.06-.13a4.24,4.24,0,0,1,2.56-.23c7.1-.49,14.2-1.18,21.31-1.45,11.7-.44,23.35-2.46,35.1-.92,1.5.2,2.22-.5,2.12-2.06A3.38,3.38,0,0,0,272.89,33.6Z"/><path class="cls-6" d="M158.49,2.48h11.32c6.91,0,12.56,5.19,12.56,11.52,0,6.07-5.65,11-12.56,11h-7.29V38.19h-4ZM178.34,14c0-4.12-3.84-7.49-8.53-7.49h-7.29V21l7.29,0C174.5,21.07,178.34,17.88,178.34,14Z"/><path class="cls-6" d="M185.38,20.36a18.36,18.36,0,1,1,18.32,18.3A18.42,18.42,0,0,1,185.38,20.36Zm32.63,0A14.28,14.28,0,1,0,203.7,34.58,14.34,14.34,0,0,0,218,20.34Z"/><path class="cls-6" d="M225.47,31.81l3.11-2.28a10.34,10.34,0,0,0,9.06,5.1c4.67,0,8.48-2.53,8.48-6.05,0-4-5.12-5.94-9.68-7.67-4.39-1.7-9.28-3.85-9.28-9.37S232.1,2,238.37,2c5.29,0,8.9,2.9,10.23,6.43l-3,2a7.84,7.84,0,0,0-7.25-4.49c-3.83,0-7.11,2.52-7.11,5.71,0,3.46,3.92,4.72,8.53,6.49,5.36,2.17,10.43,4.65,10.43,10.39,0,6.16-5.69,10.17-12.56,10.17C231.74,38.68,227.18,35.62,225.47,31.81Z"/></svg>