<svg xmlns="http://www.w3.org/2000/svg" width="79.364" height="70.545" viewBox="432 467.599 79.364 70.545"><path d="m504.767 509.116 6.513-28.659a3.307 3.307 0 0 0-3.225-4.04h-54.119l-1.263-6.174a3.307 3.307 0 0 0-3.24-2.644h-14.126a3.307 3.307 0 0 0-3.307 3.307v2.204a3.307 3.307 0 0 0 3.307 3.307h9.629l9.679 47.32a7.716 7.716 0 1 0 9.238 1.18h28.885a7.716 7.716 0 1 0 8.763-1.434l.76-3.344a3.307 3.307 0 0 0-3.224-4.04h-36.984l-.902-4.409h40.391a3.307 3.307 0 0 0 3.225-2.574Z" fill="#232a3b" fill-rule="evenodd" data-name="Icon awesome-shopping-cart"/></svg>