<svg xmlns="http://www.w3.org/2000/svg" width="32.759" height="19.656" viewBox="40 335.344 32.759 19.656"><path d="M58.017 346.81h-.819v-4.504a.41.41 0 0 0-.41-.41h-.694c-.243 0-.48.072-.681.207l-.785.523a.41.41 0 0 0-.114.567l.455.682a.41.41 0 0 0 .567.113l.024-.016v2.838h-.819a.41.41 0 0 0-.409.41v.819c0 .226.183.41.41.41h3.275a.41.41 0 0 0 .41-.41v-.82a.41.41 0 0 0-.41-.409Zm13.104-11.466H41.638c-.905 0-1.638.734-1.638 1.638v16.38c0 .904.733 1.638 1.638 1.638H71.12c.905 0 1.638-.734 1.638-1.638v-16.38c0-.904-.733-1.638-1.638-1.638Zm-28.664 17.199v-3.276a3.276 3.276 0 0 1 3.276 3.276h-3.276Zm0-11.466v-3.276h3.276a3.276 3.276 0 0 1-3.276 3.276Zm13.922 9.828c-2.713 0-4.913-2.567-4.913-5.733 0-3.166 2.2-5.733 4.913-5.733 2.714 0 4.914 2.567 4.914 5.733 0 3.167-2.2 5.733-4.914 5.733Zm13.923 1.638h-3.276a3.276 3.276 0 0 1 3.276-3.276v3.276Zm0-11.466a3.276 3.276 0 0 1-3.276-3.276h3.276v3.276Z" fill="#fff" fill-rule="evenodd" data-name="Icon awesome-money-bill-alt"/></svg>