<svg xmlns="http://www.w3.org/2000/svg" width="70.533" height="70.545" viewBox="432 207.599 70.533 70.545"><path d="m501.574 268.59-13.736-13.736a3.304 3.304 0 0 0-2.342-.964h-2.245a28.516 28.516 0 0 0 6.061-17.635c0-15.83-12.826-28.656-28.656-28.656-15.83 0-28.656 12.827-28.656 28.656 0 15.83 12.826 28.657 28.656 28.657 6.654 0 12.771-2.26 17.635-6.062v2.245c0 .882.344 1.723.964 2.343l13.736 13.735a3.293 3.293 0 0 0 4.67 0l3.9-3.899a3.322 3.322 0 0 0 .013-4.684Zm-40.918-14.7c-9.74 0-17.634-7.88-17.634-17.635 0-9.74 7.88-17.634 17.634-17.634 9.74 0 17.635 7.88 17.635 17.634 0 9.74-7.88 17.635-17.635 17.635Z" fill="#232a3b" fill-rule="evenodd" data-name="Icon awesome-search"/></svg>