<svg width="36" height="36" viewBox="0 0 36 36" fill="none" xmlns="http://www.w3.org/2000/svg">
<path d="M21.3771 36H14.624C14.2009 36.0001 13.7905 35.8598 13.4608 35.6025C13.1311 35.3451 12.902 34.9862 12.8114 34.5852L12.0564 31.194C11.0491 30.7658 10.0939 30.2303 9.20856 29.5974L5.80047 30.6504C5.39707 30.7752 4.9618 30.7624 4.56695 30.6141C4.1721 30.4657 3.84142 30.1908 3.62983 29.835L0.245859 24.1632C0.036486 23.807 -0.0421075 23.3925 0.0229372 22.9874C0.0879819 22.5822 0.292814 22.2105 0.603922 21.933L3.24765 19.593C3.12742 18.533 3.12742 17.4634 3.24765 16.4034L0.603922 14.0688C0.292373 13.7912 0.0872627 13.4191 0.0222074 13.0136C-0.042848 12.6081 0.036011 12.1931 0.245859 11.8368L3.62241 6.1614C3.834 5.80557 4.16468 5.53066 4.55953 5.38234C4.95438 5.23401 5.38965 5.22119 5.79305 5.346L9.20113 6.399C9.65381 6.075 10.125 5.7726 10.6111 5.499C11.0805 5.2434 11.5629 5.0112 12.0564 4.8042L12.8133 1.4166C12.9034 1.01556 13.1321 0.656438 13.4614 0.398788C13.7908 0.141138 14.201 0.000431939 14.624 0H21.3771C21.8002 0.000431939 22.2104 0.141138 22.5397 0.398788C22.869 0.656438 23.0977 1.01556 23.1878 1.4166L23.9522 4.806C24.9582 5.23668 25.9131 5.77202 26.8 6.4026L30.2099 5.3496C30.6131 5.22525 31.0479 5.23831 31.4424 5.38661C31.8368 5.53491 32.1672 5.80955 32.3787 6.165L35.7553 11.8404C36.1857 12.573 36.0373 13.5 35.3972 14.0706L32.7535 16.4106C32.8737 17.4706 32.8737 18.5402 32.7535 19.6002L35.3972 21.9402C36.0373 22.5126 36.1857 23.4378 35.7553 24.1704L32.3787 29.8458C32.1671 30.2016 31.8365 30.4765 31.4416 30.6249C31.0468 30.7732 30.6115 30.786 30.2081 30.6612L26.8 29.6082C25.9153 30.2406 24.9608 30.7755 23.9541 31.203L23.1878 34.5852C23.0974 34.9859 22.8685 35.3446 22.5392 35.6019C22.2099 35.8592 21.7999 35.9997 21.3771 36ZM17.9931 10.8C16.025 10.8 14.1374 11.5586 12.7457 12.9088C11.354 14.2591 10.5722 16.0904 10.5722 18C10.5722 19.9096 11.354 21.7409 12.7457 23.0912C14.1374 24.4414 16.025 25.2 17.9931 25.2C19.9613 25.2 21.8489 24.4414 23.2406 23.0912C24.6323 21.7409 25.4141 19.9096 25.4141 18C25.4141 16.0904 24.6323 14.2591 23.2406 12.9088C21.8489 11.5586 19.9613 10.8 17.9931 10.8Z" fill="white"/>
</svg>
