<svg xmlns="http://www.w3.org/2000/svg" width="77.03" height="71.528" viewBox="1017 468.472 77.03 71.528"><path d="M1091.107 493.232h-25.293l-7.686-22.937c-.378-1.118-1.427-1.823-2.613-1.823-1.187 0-2.236.705-2.614 1.823l-7.686 22.937h-25.464a2.76 2.76 0 0 0-2.751 2.75c0 .156.017.328.051.465.035.602.31 1.272 1.152 1.943l20.788 14.65-7.978 23.194c-.395 1.118 0 2.373.946 3.095.498.361.963.671 1.547.671.568 0 1.238-.292 1.72-.619l20.289-14.46 20.289 14.46c.481.344 1.152.619 1.72.619.584 0 1.048-.292 1.53-.67a2.725 2.725 0 0 0 .945-3.096l-7.978-23.194 20.616-14.787.499-.43c.447-.482.894-1.135.894-1.84 0-1.513-1.41-2.751-2.923-2.751Z" fill="#232a3b" fill-rule="evenodd" data-name="Icon ionic-ios-star"/></svg>