<svg xmlns="http://www.w3.org/2000/svg" width="72.5" height="58" viewBox="1026 219.5 72.5 58"><path d="M1040.5 259.375h-10.875A3.625 3.625 0 0 0 1026 263v10.875a3.625 3.625 0 0 0 3.625 3.625h10.875a3.625 3.625 0 0 0 3.625-3.625V263a3.625 3.625 0 0 0-3.625-3.625Zm-2.719-9.062h21.75v5.437h5.438v-5.437h21.75v5.437h5.437v-6.524a4.357 4.357 0 0 0-4.35-4.351h-22.837v-7.25h4.531a3.625 3.625 0 0 0 3.625-3.625v-10.875a3.625 3.625 0 0 0-3.625-3.625H1055a3.625 3.625 0 0 0-3.625 3.625V234a3.625 3.625 0 0 0 3.625 3.625h4.531v7.25h-22.836a4.356 4.356 0 0 0-4.351 4.351v6.524h5.437v-5.437Zm29.907 9.062h-10.875a3.625 3.625 0 0 0-3.626 3.625v10.875a3.625 3.625 0 0 0 3.626 3.625h10.874a3.625 3.625 0 0 0 3.626-3.625V263a3.625 3.625 0 0 0-3.626-3.625Zm27.187 0H1084a3.625 3.625 0 0 0-3.625 3.625v10.875A3.625 3.625 0 0 0 1084 277.5h10.875a3.625 3.625 0 0 0 3.625-3.625V263a3.625 3.625 0 0 0-3.625-3.625Z" fill-rule="evenodd" data-name="Icon awesome-sitemap"/></svg>