<svg xmlns="http://www.w3.org/2000/svg" width="75.932" height="60.113" viewBox="1220 741 75.932 60.113"><g data-name="Icon ionic-ios-list"><path d="M1245.212 749.7h47.556a3.173 3.173 0 0 0 3.164-3.163 3.173 3.173 0 0 0-3.164-3.164h-47.556a3.173 3.173 0 0 0-3.164 3.164 3.173 3.173 0 0 0 3.164 3.163Z" fill-rule="evenodd" data-name="Path 45"/><path d="M1292.768 792.412h-47.556a3.173 3.173 0 0 0-3.164 3.164 3.173 3.173 0 0 0 3.164 3.164h47.556a3.173 3.173 0 0 0 3.164-3.164 3.173 3.173 0 0 0-3.164-3.164Z" fill-rule="evenodd" data-name="Path 44"/><path d="M1292.768 767.893h-47.556a3.173 3.173 0 0 0-3.164 3.163 3.173 3.173 0 0 0 3.164 3.164h47.556a3.173 3.173 0 0 0 3.164-3.164 3.173 3.173 0 0 0-3.164-3.163Z" fill-rule="evenodd" data-name="Path 43"/><path d="M1231.073 795.576a5.537 5.537 0 1 1-11.073 0 5.537 5.537 0 0 1 11.073 0Z" fill-rule="evenodd" data-name="Path 42"/><path d="M1231.073 746.537a5.537 5.537 0 1 1-11.073 0 5.537 5.537 0 0 1 11.073 0Z" fill-rule="evenodd" data-name="Path 41"/><path d="M1231.073 771.056a5.537 5.537 0 1 1-11.073 0 5.537 5.537 0 0 1 11.073 0Z" fill-rule="evenodd" data-name="Path 40"/></g></svg>